<svg width="20" height="20" viewBox="0 0 20 20" fill="none" xmlns="http://www.w3.org/2000/svg">
<g clip-path="url(#clip0_455_3442)">
<path d="M10.0001 1.6665C6.77508 1.6665 4.16675 4.27484 4.16675 7.49984C4.16675 11.8748 10.0001 18.3332 10.0001 18.3332C10.0001 18.3332 15.8334 11.8748 15.8334 7.49984C15.8334 4.27484 13.2251 1.6665 10.0001 1.6665ZM5.83341 7.49984C5.83341 5.19984 7.70008 3.33317 10.0001 3.33317C12.3001 3.33317 14.1667 5.19984 14.1667 7.49984C14.1667 9.89984 11.7667 13.4915 10.0001 15.7332C8.26675 13.5082 5.83341 9.87484 5.83341 7.49984Z" fill="white"/>
<path d="M10.0001 9.58317C11.1507 9.58317 12.0834 8.65043 12.0834 7.49984C12.0834 6.34924 11.1507 5.4165 10.0001 5.4165C8.84949 5.4165 7.91675 6.34924 7.91675 7.49984C7.91675 8.65043 8.84949 9.58317 10.0001 9.58317Z" fill="white"/>
</g>
<defs>
<clipPath id="clip0_455_3442">
<rect width="20" height="20" fill="white"/>
</clipPath>
</defs>
</svg>
