<svg width="16" height="16" viewBox="0 0 16 16" fill="none" xmlns="http://www.w3.org/2000/svg">
<path d="M8.00004 1.33337C4.32004 1.33337 1.33337 4.32004 1.33337 8.00004C1.33337 11.68 4.32004 14.6667 8.00004 14.6667C11.68 14.6667 14.6667 11.68 14.6667 8.00004C14.6667 4.32004 11.68 1.33337 8.00004 1.33337ZM8.00004 3.33337C9.10671 3.33337 10 4.22671 10 5.33337C10 6.44004 9.10671 7.33337 8.00004 7.33337C6.89337 7.33337 6.00004 6.44004 6.00004 5.33337C6.00004 4.22671 6.89337 3.33337 8.00004 3.33337ZM8.00004 12.8C6.33337 12.8 4.86004 11.9467 4.00004 10.6534C4.02004 9.32671 6.66671 8.60004 8.00004 8.60004C9.32671 8.60004 11.98 9.32671 12 10.6534C11.14 11.9467 9.66671 12.8 8.00004 12.8Z" fill="#316541"/>
</svg>
