<svg width="20" height="20" viewBox="0 0 20 20" fill="none" xmlns="http://www.w3.org/2000/svg">
<g clip-path="url(#clip0_455_3463)">
<path fill-rule="evenodd" clip-rule="evenodd" d="M10.0001 3.3335C10.7126 3.3335 11.4434 3.35183 12.1517 3.38183L12.9884 3.42183L13.7892 3.46933L14.5392 3.52016L15.2242 3.5735C15.9677 3.63007 16.6674 3.94719 17.2 4.469C17.7327 4.9908 18.0641 5.68383 18.1359 6.426L18.1692 6.78016L18.2317 7.5385C18.2901 8.32433 18.3334 9.181 18.3334 10.0002C18.3334 10.8193 18.2901 11.676 18.2317 12.4618L18.1692 13.2202L18.1359 13.5743C18.0641 14.3166 17.7325 15.0098 17.1997 15.5316C16.6669 16.0534 15.9671 16.3704 15.2234 16.4268L14.5401 16.4793L13.7901 16.531L12.9884 16.5785L12.1517 16.6185C11.4349 16.6495 10.7176 16.6657 10.0001 16.6668C9.2826 16.6657 8.56522 16.6495 7.84841 16.6185L7.01175 16.5785L6.21091 16.531L5.46091 16.4793L4.77591 16.4268C4.03243 16.3703 3.33275 16.0531 2.80012 15.5313C2.26749 15.0095 1.93607 14.3165 1.86425 13.5743L1.83091 13.2202L1.76841 12.4618C1.70494 11.6428 1.67103 10.8217 1.66675 10.0002C1.66675 9.181 1.71008 8.32433 1.76841 7.5385L1.83091 6.78016L1.86425 6.426C1.93605 5.68396 2.26734 4.99104 2.7998 4.46925C3.33226 3.94746 4.03174 3.63026 4.77508 3.5735L5.45925 3.52016L6.20925 3.46933L7.01091 3.42183L7.84758 3.38183C8.56467 3.35077 9.28232 3.33465 10.0001 3.3335ZM8.33341 7.97933V12.021C8.33341 12.406 8.75008 12.646 9.08341 12.4543L12.5834 10.4335C12.6596 10.3897 12.7228 10.3265 12.7668 10.2504C12.8108 10.1744 12.834 10.088 12.834 10.0002C12.834 9.91229 12.8108 9.82596 12.7668 9.74988C12.7228 9.67381 12.6596 9.61067 12.5834 9.56683L9.08341 7.54683C9.00738 7.50293 8.92113 7.47983 8.83333 7.47984C8.74554 7.47986 8.65929 7.50299 8.58328 7.54691C8.50726 7.59083 8.44414 7.654 8.40028 7.73005C8.35642 7.8061 8.33336 7.89237 8.33341 7.98016V7.97933Z" fill="white"/>
</g>
<defs>
<clipPath id="clip0_455_3463">
<rect width="20" height="20" fill="white"/>
</clipPath>
</defs>
</svg>
