<svg width="20" height="20" viewBox="0 0 20 20" fill="none" xmlns="http://www.w3.org/2000/svg">
<g clip-path="url(#clip0_480_1445)">
<path fill-rule="evenodd" clip-rule="evenodd" d="M9.99996 3.3335C10.7125 3.3335 11.4433 3.35183 12.1516 3.38183L12.9883 3.42183L13.7891 3.46933L14.5391 3.52016L15.2241 3.5735C15.9676 3.63007 16.6673 3.94719 17.1999 4.469C17.7326 4.9908 18.064 5.68383 18.1358 6.426L18.1691 6.78016L18.2316 7.5385C18.29 8.32433 18.3333 9.181 18.3333 10.0002C18.3333 10.8193 18.29 11.676 18.2316 12.4618L18.1691 13.2202L18.1358 13.5743C18.0639 14.3166 17.7324 15.0098 17.1996 15.5316C16.6668 16.0534 15.9669 16.3704 15.2233 16.4268L14.54 16.4793L13.79 16.531L12.9883 16.5785L12.1516 16.6185C11.4348 16.6495 10.7174 16.6657 9.99996 16.6668C9.28248 16.6657 8.5651 16.6495 7.84829 16.6185L7.01163 16.5785L6.21079 16.531L5.46079 16.4793L4.77579 16.4268C4.0323 16.3703 3.33263 16.0531 2.8 15.5313C2.26737 15.0095 1.93595 14.3165 1.86413 13.5743L1.83079 13.2202L1.76829 12.4618C1.70482 11.6428 1.67091 10.8217 1.66663 10.0002C1.66663 9.181 1.70996 8.32433 1.76829 7.5385L1.83079 6.78016L1.86413 6.426C1.93592 5.68396 2.26722 4.99104 2.79968 4.46925C3.33214 3.94746 4.03162 3.63026 4.77496 3.5735L5.45913 3.52016L6.20913 3.46933L7.01079 3.42183L7.84746 3.38183C8.56455 3.35077 9.2822 3.33465 9.99996 3.3335ZM8.33329 7.97933V12.021C8.33329 12.406 8.74996 12.646 9.08329 12.4543L12.5833 10.4335C12.6595 10.3897 12.7227 10.3265 12.7667 10.2504C12.8107 10.1744 12.8338 10.088 12.8338 10.0002C12.8338 9.91229 12.8107 9.82596 12.7667 9.74988C12.7227 9.67381 12.6595 9.61067 12.5833 9.56683L9.08329 7.54683C9.00726 7.50293 8.92101 7.47983 8.83321 7.47984C8.74542 7.47986 8.65917 7.50299 8.58315 7.54691C8.50713 7.59083 8.44402 7.654 8.40016 7.73005C8.3563 7.8061 8.33324 7.89237 8.33329 7.98016V7.97933Z" fill="white"/>
</g>
<defs>
<clipPath id="clip0_480_1445">
<rect width="20" height="20" fill="white"/>
</clipPath>
</defs>
</svg>
