<svg width="20" height="20" viewBox="0 0 20 20" fill="none" xmlns="http://www.w3.org/2000/svg">
<g clip-path="url(#clip0_455_3446)">
<path d="M18.3334 7.48317V14.9998C18.3334 15.9165 17.5834 16.6665 16.6667 16.6665H3.33341C2.41675 16.6665 1.66675 15.9165 1.66675 14.9998L1.67508 4.99984C1.67508 4.08317 2.41675 3.33317 3.33341 3.33317H11.7501C11.7001 3.59984 11.6667 3.88317 11.6667 4.1665C11.6667 4.44984 11.7001 4.73317 11.7501 4.99984H3.33341L10.0001 9.1665L13.0584 7.25817C13.4501 7.6165 13.9084 7.8915 14.4167 8.07484L10.0001 10.8332L3.33341 6.6665V14.9998H16.6667V8.24984C17.2834 8.12484 17.8501 7.84984 18.3334 7.48317ZM13.3334 4.1665C13.3334 5.54984 14.4501 6.6665 15.8334 6.6665C17.2167 6.6665 18.3334 5.54984 18.3334 4.1665C18.3334 2.78317 17.2167 1.6665 15.8334 1.6665C14.4501 1.6665 13.3334 2.78317 13.3334 4.1665Z" fill="white"/>
</g>
<defs>
<clipPath id="clip0_455_3446">
<rect width="20" height="20" fill="white"/>
</clipPath>
</defs>
</svg>
