<svg width="20" height="20" viewBox="0 0 20 20" fill="none" xmlns="http://www.w3.org/2000/svg">
<g clip-path="url(#clip0_480_1424)">
<path d="M9.99996 1.6665C6.77496 1.6665 4.16663 4.27484 4.16663 7.49984C4.16663 11.8748 9.99996 18.3332 9.99996 18.3332C9.99996 18.3332 15.8333 11.8748 15.8333 7.49984C15.8333 4.27484 13.225 1.6665 9.99996 1.6665ZM5.83329 7.49984C5.83329 5.19984 7.69996 3.33317 9.99996 3.33317C12.3 3.33317 14.1666 5.19984 14.1666 7.49984C14.1666 9.89984 11.7666 13.4915 9.99996 15.7332C8.26663 13.5082 5.83329 9.87484 5.83329 7.49984Z" fill="white"/>
<path d="M9.99996 9.58317C11.1506 9.58317 12.0833 8.65043 12.0833 7.49984C12.0833 6.34924 11.1506 5.4165 9.99996 5.4165C8.84937 5.4165 7.91663 6.34924 7.91663 7.49984C7.91663 8.65043 8.84937 9.58317 9.99996 9.58317Z" fill="white"/>
</g>
<defs>
<clipPath id="clip0_480_1424">
<rect width="20" height="20" fill="white"/>
</clipPath>
</defs>
</svg>
