<svg width="20" height="20" viewBox="0 0 20 20" fill="none" xmlns="http://www.w3.org/2000/svg">
<g clip-path="url(#clip0_480_1428)">
<path d="M18.3333 7.48317V14.9998C18.3333 15.9165 17.5833 16.6665 16.6666 16.6665H3.33329C2.41663 16.6665 1.66663 15.9165 1.66663 14.9998L1.67496 4.99984C1.67496 4.08317 2.41663 3.33317 3.33329 3.33317H11.75C11.7 3.59984 11.6666 3.88317 11.6666 4.1665C11.6666 4.44984 11.7 4.73317 11.75 4.99984H3.33329L9.99996 9.1665L13.0583 7.25817C13.45 7.6165 13.9083 7.8915 14.4166 8.07484L9.99996 10.8332L3.33329 6.6665V14.9998H16.6666V8.24984C17.2833 8.12484 17.85 7.84984 18.3333 7.48317ZM13.3333 4.1665C13.3333 5.54984 14.45 6.6665 15.8333 6.6665C17.2166 6.6665 18.3333 5.54984 18.3333 4.1665C18.3333 2.78317 17.2166 1.6665 15.8333 1.6665C14.45 1.6665 13.3333 2.78317 13.3333 4.1665Z" fill="white"/>
</g>
<defs>
<clipPath id="clip0_480_1428">
<rect width="20" height="20" fill="white"/>
</clipPath>
</defs>
</svg>
