<svg width="60" height="60" viewBox="0 0 60 60" fill="none" xmlns="http://www.w3.org/2000/svg">
<path d="M37.5 55V50H47.5V25H12.5V35H7.5V15C7.5 13.625 7.99 12.4483 8.97 11.47C9.95 10.4917 11.1267 10.0017 12.5 10H15V5H20V10H40V5H45V10H47.5C48.875 10 50.0525 10.49 51.0325 11.47C52.0125 12.45 52.5017 13.6267 52.5 15V50C52.5 51.375 52.0108 52.5525 51.0325 53.5325C50.0542 54.5125 48.8767 55.0017 47.5 55H37.5ZM20 60L16.5 56.5L22.9375 50H2.5V45H22.9375L16.5 38.5L20 35L32.5 47.5L20 60Z" fill="#316541"/>
</svg>
