<svg width="60" height="60" viewBox="0 0 60 60" fill="none" xmlns="http://www.w3.org/2000/svg">
<path d="M47.5 47.5H12.5V20H47.5M40 2.5V7.5H20V2.5H15V7.5H12.5C9.75 7.5 7.5 9.75 7.5 12.5V47.5C7.5 48.8261 8.02678 50.0979 8.96447 51.0355C9.90215 51.9732 11.1739 52.5 12.5 52.5H47.5C50.275 52.5 52.5 50.275 52.5 47.5V12.5C52.5 11.1739 51.9732 9.90215 51.0355 8.96447C50.0979 8.02678 48.8261 7.5 47.5 7.5H45V2.5M27.2 30H18.175L25.475 35.275L22.7 43.9L30 38.575L37.3 43.9L34.5 35.3L41.8 30H32.8L30 21.4L27.2 30Z" fill="#316541"/>
</svg>
